<?xml version="1.0" standalone="no"?>
<!DOCTYPE svg PUBLIC "-//W3C//DTD SVG 20010904//EN"
 "http://www.w3.org/TR/2001/REC-SVG-20010904/DTD/svg10.dtd">
<svg version="1.0" xmlns="http://www.w3.org/2000/svg"
 width="256.000000pt" height="256.000000pt" viewBox="0 0 256.000000 256.000000"
 preserveAspectRatio="xMidYMid meet">

<g transform="translate(0.000000,256.000000) scale(0.100000,-0.100000)"
fill="#000000" stroke="none">
<path d="M29 2524 l-24 -26 0 -1219 0 -1219 28 -27 27 -28 1220 0 1220 0 27
28 28 27 0 1219 0 1219 -24 26 -24 26 -1227 0 -1227 0 -24 -26z m1486 -251
c22 -12 48 -30 58 -41 18 -20 18 -21 -5 -35 -12 -7 -84 -51 -158 -97 -74 -46
-161 -100 -193 -119 -32 -20 -88 -55 -125 -78 -37 -24 -78 -50 -92 -58 -14 -8
-56 -35 -95 -60 -69 -43 -70 -44 -78 -22 -16 41 -3 149 25 207 65 138 244 272
428 320 60 16 190 6 235 -17z m36 -373 c11 -6 19 -21 19 -35 0 -20 -24 -45
-44 -45 -10 0 -36 32 -36 45 0 13 26 45 36 45 3 0 14 -5 25 -10z m-245 -65
c11 -43 -34 -73 -64 -43 -13 13 -16 50 -5 61 3 4 19 7 34 7 22 0 30 -6 35 -25z
m229 -449 l100 -12 -65 -11 c-313 -52 -250 -52 -565 1 l-70 12 135 13 c74 7
142 14 150 16 23 6 202 -5 315 -19z m175 -144 l25 -10 -30 -13 c-40 -16 -725
-22 -802 -7 -75 16 -68 31 17 40 69 8 768 -1 790 -10z m30 -151 c0 -62 10 -61
-446 -61 -267 0 -422 4 -435 10 -13 8 -19 21 -19 45 l0 35 450 0 450 0 0 -29z
m-1145 -346 c0 -123 -1 -130 -20 -130 -19 0 -20 8 -23 119 -3 133 0 149 25
144 16 -3 18 -17 18 -133z m-147 60 c13 -33 35 -84 48 -114 25 -54 25 -86 1
-79 -6 2 -18 19 -26 36 -14 31 -17 32 -73 32 -40 0 -58 -4 -58 -12 0 -7 -9
-24 -20 -38 -13 -18 -22 -22 -30 -14 -11 11 -3 37 46 141 13 28 24 54 24 57 0
2 5 17 10 31 7 19 16 26 32 23 16 -2 28 -18 46 -63z m332 -15 c11 -11 20 -16
20 -12 0 15 50 32 76 26 35 -9 44 -33 44 -118 0 -58 -3 -76 -14 -76 -19 0 -26
23 -26 90 0 65 -16 81 -56 55 -19 -12 -24 -25 -26 -77 -2 -48 -7 -63 -18 -63
-12 0 -16 17 -20 75 -4 62 -8 75 -23 78 -37 7 -57 -26 -57 -95 0 -49 -3 -63
-15 -63 -12 0 -15 17 -15 95 0 78 3 95 15 95 8 0 15 -5 15 -11 0 -5 10 -3 22
5 30 21 54 20 78 -4z m514 10 c29 -11 62 -70 53 -94 -5 -12 -21 -16 -67 -16
-61 0 -72 -7 -45 -30 10 -8 31 -11 60 -7 35 5 45 4 45 -8 0 -37 -92 -47 -133
-15 -49 39 -43 135 11 165 32 17 43 18 76 5z m196 -5 c10 -12 5 -17 -27 -32
-38 -18 -38 -18 -41 -86 -2 -51 -6 -67 -17 -67 -12 0 -15 19 -15 95 0 78 3 95
15 95 8 0 15 -5 15 -11 0 -5 10 -3 22 5 28 20 32 20 48 1z m308 9 c33 -9 52
-54 52 -123 0 -61 -11 -81 -33 -62 -8 6 -18 6 -27 1 -23 -15 -67 -12 -84 6
-41 41 -2 104 64 104 22 0 40 4 40 10 0 18 -37 29 -75 23 -32 -5 -37 -4 -33
13 4 25 53 39 96 28z m232 -19 c9 -10 16 -41 18 -86 5 -74 -6 -102 -30 -81 -9
7 -19 7 -28 2 -23 -15 -76 -12 -90 5 -20 24 -15 67 10 87 13 10 38 18 61 18
21 0 39 4 39 10 0 18 -37 29 -75 23 -32 -5 -37 -4 -33 13 6 34 95 41 128 9z
m200 10 c37 -19 50 -43 50 -90 0 -68 -74 -115 -131 -85 -18 10 -19 7 -19 -40
0 -38 -4 -50 -15 -50 -13 0 -15 22 -15 136 0 136 0 136 23 131 12 -3 31 -1 42
3 28 12 33 12 65 -5z m-1220 -70 c5 -64 7 -70 28 -73 37 -6 52 15 52 72 0 58
11 82 34 73 13 -5 16 -23 16 -92 0 -69 -3 -87 -16 -92 -9 -3 -20 0 -25 8 -6
11 -11 11 -21 1 -6 -6 -27 -12 -44 -12 -49 0 -64 29 -64 118 0 65 2 73 18 70
14 -3 18 -17 22 -73z m646 60 c4 -9 -14 -37 -45 -72 l-50 -58 50 -3 c41 -3 50
-6 47 -20 -3 -14 -15 -17 -73 -17 -61 0 -70 2 -73 19 -2 11 2 24 10 30 7 6 28
30 46 53 l33 42 -43 3 c-31 2 -44 8 -46 21 -3 15 5 17 68 17 53 0 72 -4 76
-15z"/>
<path d="M379 765 l-17 -45 40 0 c34 0 39 3 33 18 -4 9 -12 29 -17 45 -5 15
-13 27 -17 27 -3 0 -13 -20 -22 -45z"/>
<path d="M1232 758 c-21 -21 -13 -28 33 -28 47 0 58 12 26 30 -26 13 -44 13
-59 -2z"/>
<path d="M1730 670 c0 -15 7 -20 28 -20 27 0 52 15 52 32 0 4 -18 8 -40 8 -33
0 -40 -3 -40 -20z"/>
<path d="M1925 680 c-10 -17 5 -30 34 -30 26 0 51 16 51 32 0 12 -78 10 -85
-2z"/>
<path d="M2160 757 c-18 -9 -26 -22 -28 -47 -4 -38 16 -60 54 -60 52 0 75 74
32 104 -27 19 -26 19 -58 3z"/>
</g>
</svg>
